<svg width="20" height="20" viewBox="0 0 20 20" fill="none" xmlns="http://www.w3.org/2000/svg">
<path d="M8.30556 14.4167L16.3333 6.36111L15.1389 5.16667L8.30556 12.0278L5 8.72222L3.80556 9.91667L8.30556 14.4167ZM1.66667 20C1.22222 20 0.833333 19.8333 0.5 19.5C0.166667 19.1667 0 18.7778 0 18.3333V1.66667C0 1.22222 0.166667 0.833333 0.5 0.5C0.833333 0.166667 1.22222 0 1.66667 0H18.3333C18.7778 0 19.1667 0.166667 19.5 0.5C19.8333 0.833333 20 1.22222 20 1.66667V18.3333C20 18.7778 19.8333 19.1667 19.5 19.5C19.1667 19.8333 18.7778 20 18.3333 20H1.66667Z" fill="#FF9122"/>
</svg>
