<svg width="24" height="24" viewBox="0 0 24 24" fill="none" xmlns="http://www.w3.org/2000/svg">
<path d="M2.7478 20.25C2.26593 20.25 1.85417 20.0784 1.5125 19.7353C1.17083 19.3922 1 18.9797 1 18.4978C1 18.0159 1.17078 17.6042 1.51235 17.2625C1.85392 16.9208 2.26452 16.75 2.74417 16.75C2.83139 16.75 2.91667 16.7542 3 16.7625C3.08333 16.7708 3.19167 16.7917 3.325 16.825L8.325 11.825C8.29167 11.6917 8.27083 11.5833 8.2625 11.5C8.25417 11.4167 8.25 11.3314 8.25 11.2442C8.25 10.7645 8.42157 10.3539 8.76472 10.0124C9.10786 9.6708 9.52036 9.50001 10.0022 9.50001C10.4841 9.50001 10.8958 9.67196 11.2375 10.0159C11.5792 10.3598 11.75 10.7732 11.75 11.2561C11.75 11.2854 11.725 11.475 11.675 11.825L14.425 14.575C14.5583 14.5417 14.6667 14.5208 14.75 14.5125C14.8333 14.5042 14.9167 14.5 15 14.5C15.0833 14.5 15.1667 14.5042 15.25 14.5125C15.3333 14.5208 15.4417 14.5417 15.575 14.575L19.575 10.575C19.5417 10.4417 19.5208 10.3333 19.5125 10.25C19.5042 10.1667 19.5 10.0814 19.5 9.99419C19.5 9.51454 19.6716 9.10393 20.0147 8.76236C20.3579 8.4208 20.7704 8.25001 21.2522 8.25001C21.7341 8.25001 22.1458 8.42159 22.4875 8.76474C22.8292 9.10787 23 9.52037 23 10.0022C23 10.4841 22.8292 10.8958 22.4876 11.2375C22.1461 11.5792 21.7355 11.75 21.2558 11.75C21.1686 11.75 21.0833 11.7458 21 11.7375C20.9167 11.7292 20.8083 11.7083 20.675 11.675L16.675 15.675C16.7083 15.8083 16.7292 15.9167 16.7375 16C16.7458 16.0833 16.75 16.1686 16.75 16.2558C16.75 16.7355 16.5784 17.1461 16.2353 17.4877C15.8921 17.8292 15.4796 18 14.9978 18C14.5159 18 14.1042 17.8292 13.7625 17.4877C13.4208 17.1461 13.25 16.7355 13.25 16.2558C13.25 16.1686 13.2542 16.0833 13.2625 16C13.2708 15.9167 13.2917 15.8083 13.325 15.675L10.575 12.925C10.4417 12.9583 10.3333 12.9792 10.25 12.9875C10.1667 12.9958 10.0813 13 9.99375 13C9.96458 13 9.775 12.975 9.425 12.925L4.425 17.925C4.45833 18.0583 4.47917 18.1667 4.4875 18.25C4.49583 18.3333 4.5 18.4186 4.5 18.5058C4.5 18.9855 4.32842 19.3961 3.98527 19.7377C3.64214 20.0792 3.22965 20.25 2.7478 20.25ZM4 9.20001L3.49367 8.10634L2.4 7.60001L3.49367 7.09369L4 6.00001L4.50633 7.09369L5.6 7.60001L4.50633 8.10634L4 9.20001ZM15 7.92501L14.2321 6.26794L12.575 5.50001L14.2321 4.73209L15 3.07501L15.7679 4.73209L17.425 5.50001L15.7679 6.26794L15 7.92501Z" fill="#F7E1CB"/>
</svg>
