<svg width="140" height="140" viewBox="0 0 140 140" fill="none" xmlns="http://www.w3.org/2000/svg">
<g clip-path="url(#clip0_14_188)">
<path d="M10.696 135.688V88.872C10.696 87.136 12.096 85.736 13.832 85.736H38.808C40.544 85.736 41.944 87.136 41.944 88.872V135.688H10.696Z" fill="#64A2ED"/>
<path d="M54.376 135.688V70.112C54.376 68.376 55.776 66.976 57.512 66.976H82.488C84.224 66.976 85.624 68.376 85.624 70.112V135.688H54.376Z" fill="#A6D2FF"/>
<path d="M98.1121 135.688V51.408C98.1121 49.672 99.5121 48.272 101.248 48.272H126.224C127.96 48.272 129.36 49.672 129.36 51.408V135.688H98.1121Z" fill="#64A2ED"/>
<path d="M4.42398 70.112C2.91198 70.112 1.56798 68.992 1.34398 67.424C1.11998 65.744 2.29598 64.12 4.03198 63.896C26.432 60.872 48.216 54.656 68.712 45.416C92.512 34.72 114.296 20.216 133.448 2.29598C134.68 1.11998 136.696 1.17598 137.872 2.46398C139.048 3.69598 138.992 5.71198 137.704 6.88798C118.104 25.312 95.704 40.208 71.288 51.184C50.176 60.648 27.832 67.032 4.87198 70.168C4.70398 70.112 4.59198 70.112 4.42398 70.112Z" fill="#3674CE"/>
<path d="M129.36 32.648C129.136 32.648 128.856 32.592 128.576 32.536C126.896 32.144 125.888 30.408 126.28 28.728L131.544 7.616H110.544C108.808 7.616 107.408 6.21599 107.408 4.47999C107.408 2.74399 108.808 1.34399 110.544 1.34399H135.52C136.472 1.34399 137.368 1.79199 137.984 2.51999C138.6 3.30399 138.768 4.25599 138.544 5.20799L132.272 30.184C131.992 31.696 130.704 32.648 129.36 32.648Z" fill="#3674CE"/>
<path d="M135.576 138.824H4.42409C2.68809 138.824 1.28809 137.424 1.28809 135.688C1.28809 133.952 2.68809 132.552 4.42409 132.552H135.576C137.312 132.552 138.712 133.952 138.712 135.688C138.712 137.424 137.312 138.824 135.576 138.824Z" fill="#3674CE"/>
</g>
<defs>
<clipPath id="clip0_14_188">
<rect width="140" height="140" fill="white"/>
</clipPath>
</defs>
</svg>
