<svg width="226" height="30" viewBox="0 0 226 30" fill="none" xmlns="http://www.w3.org/2000/svg">
<path d="M47.9834 22.9997C53.1547 22.9997 56.279 19.8008 56.279 14.497C56.279 9.20966 53.1547 6.02734 48.0414 6.02734H42V22.9997H47.9834ZM45.5221 19.9749V9.05221H47.8508C51.058 9.05221 52.7569 10.718 52.7569 14.497C52.7569 18.3008 51.058 19.9749 47.8343 19.9749H45.5221Z" fill="#222222"/>
<path d="M64.4981 23.2483C67.6389 23.2483 69.7439 21.7235 70.2412 19.3782H66.9428C66.5947 20.1323 65.7494 20.6461 64.5561 20.6461C62.7743 20.6461 61.6307 19.461 61.6307 17.5301H70.3323V16.5605C70.3323 12.218 67.697 10.1047 64.3572 10.1047C60.6279 10.1047 58.1997 12.7649 58.1997 16.6931C58.1997 20.729 60.5947 23.2483 64.4981 23.2483ZM61.6307 15.3588C61.7135 13.9003 62.824 12.6986 64.4235 12.6986C65.9732 12.6986 67.0423 13.8174 67.0588 15.3588H61.6307Z" fill="#222222"/>
<path d="M83.9609 10.2704H80.2896L77.6211 19.4196H77.4885L74.8117 10.2704H71.1405L75.599 22.9997H79.5023L83.9609 10.2704Z" fill="#222222"/>
<path d="M91.0059 23.2483C94.1468 23.2483 96.2517 21.7235 96.749 19.3782H93.4506C93.1026 20.1323 92.2573 20.6461 91.0639 20.6461C89.2821 20.6461 88.1385 19.461 88.1385 17.5301H96.8401V16.5605C96.8401 12.218 94.2048 10.1047 90.865 10.1047C87.1357 10.1047 84.7075 12.7649 84.7075 16.6931C84.7075 20.729 87.1026 23.2483 91.0059 23.2483ZM88.1385 15.3588C88.2213 13.9003 89.3318 12.6986 90.9313 12.6986C92.481 12.6986 93.5501 13.8174 93.5666 15.3588H88.1385Z" fill="#222222"/>
<path d="M102.483 6.02734H99.0109V22.9997H102.483V6.02734Z" fill="#222222"/>
<path d="M110.91 23.2483C114.755 23.2483 117.15 20.6047 117.15 16.6848C117.15 12.7401 114.755 10.1047 110.91 10.1047C107.056 10.1047 104.653 12.7401 104.653 16.6848C104.653 20.6047 107.056 23.2483 110.91 23.2483ZM108.183 16.6599C108.183 14.4307 109.111 12.7566 110.926 12.7566C112.7 12.7566 113.628 14.4307 113.628 16.6599C113.628 18.8975 112.7 20.555 110.926 20.555C109.111 20.555 108.183 18.8975 108.183 16.6599Z" fill="#222222"/>
<path d="M119.331 27.7732H122.804V20.9693H122.911C123.4 22.0135 124.461 23.2069 126.533 23.2069C129.442 23.2069 131.704 20.903 131.704 16.6517C131.704 12.2925 129.351 10.1047 126.533 10.1047C124.395 10.1047 123.384 11.3809 122.911 12.4086H122.754V10.2704H119.331V27.7732ZM122.729 16.6351C122.729 14.3395 123.699 12.8809 125.447 12.8809C127.221 12.8809 128.157 14.4058 128.157 16.6351C128.157 18.8809 127.204 20.4389 125.447 20.4389C123.715 20.4389 122.729 18.9224 122.729 16.6351Z" fill="#222222"/>
<path d="M147.746 10.8837H151.135C151.086 7.87541 148.632 6.06624 144.87 6.06624C141.165 6.06624 138.414 7.84226 138.431 10.9168C138.423 13.4196 140.188 14.845 143.047 15.5412L144.903 15.997C146.751 16.4528 147.795 16.9914 147.804 18.1434C147.795 19.4196 146.602 20.2732 144.754 20.2732C142.881 20.2732 141.522 19.4196 141.406 17.7124H137.983C138.083 21.3423 140.702 23.2401 144.795 23.2401C148.931 23.2401 151.351 21.2594 151.367 18.1599C151.351 15.3257 149.188 13.8423 146.287 13.1876L144.754 12.8146C143.287 12.4749 142.019 11.9279 142.044 10.6848C142.044 9.56602 142.96 9.01528 144.741 9.01528C146.465 9.01528 147.613 9.53287 147.746 10.8837Z" fill="#222222"/>
<path d="M153.581 27.7732H157.054V20.9693H157.161C157.65 22.0135 158.711 23.2069 160.783 23.2069C163.692 23.2069 165.954 20.903 165.954 16.6517C165.954 12.2925 163.601 10.1047 160.783 10.1047C158.645 10.1047 157.634 11.3809 157.161 12.4086H157.004V10.2704H153.581V27.7732ZM156.979 16.6351C156.979 14.3395 157.949 12.8809 159.697 12.8809C161.471 12.8809 162.407 14.4058 162.407 16.6351C162.407 18.8809 161.454 20.4389 159.697 20.4389C157.965 20.4389 156.979 18.9224 156.979 16.6351Z" fill="#222222"/>
<path d="M171.655 6.02734H168.183V22.9997H171.655V6.02734Z" fill="#222222"/>
<path d="M174.347 22.9997H177.819V10.2704H174.347V22.9997ZM174.198 7.8395C174.198 8.8174 175.051 9.60469 176.087 9.60469C177.123 9.60469 177.977 8.8174 177.977 7.8395C177.977 6.86988 177.123 6.07431 176.087 6.07431C175.051 6.07431 174.198 6.86988 174.198 7.8395Z" fill="#222222"/>
<path d="M183.983 15.6323C183.983 13.9583 184.978 12.9887 186.428 12.9887C187.862 12.9887 188.715 13.9334 188.707 15.4997V22.9997H192.179V14.8947C192.179 11.9196 190.447 10.1047 187.795 10.1047C185.898 10.1047 184.538 11.0329 183.967 12.508H183.818V10.2704H180.511V22.9997H183.983V15.6323Z" fill="#222222"/>
<path d="M201.576 10.2704H199.172V7.22071H195.7V10.2704H193.951V12.8809H195.7V19.5688C195.683 22.0467 197.391 23.1738 199.91 23.1738C200.755 23.1738 201.377 23.1075 201.741 23.0494V20.3146C201.327 20.3395 200.722 20.3809 200.382 20.3726C199.67 20.3478 199.172 20.1075 199.172 19.0964V12.8809H201.576V10.2704Z" fill="#222222"/>
<path d="M209.373 23.2483C212.514 23.2483 214.619 21.7235 215.116 19.3782H211.818C211.47 20.1323 210.624 20.6461 209.431 20.6461C207.649 20.6461 206.506 19.461 206.506 17.5301H215.207V16.5605C215.207 12.218 212.572 10.1047 209.232 10.1047C205.503 10.1047 203.075 12.7649 203.075 16.6931C203.075 20.729 205.47 23.2483 209.373 23.2483ZM206.506 15.3588C206.589 13.9003 207.699 12.6986 209.298 12.6986C210.848 12.6986 211.917 13.8174 211.934 15.3588H206.506Z" fill="#222222"/>
<path d="M217.378 22.9997H220.85V15.7649C220.85 14.1986 222.002 13.1047 223.569 13.1047C224.058 13.1047 224.729 13.1959 225.052 13.2953V10.1959C224.745 10.1378 224.298 10.0881 223.942 10.0881C222.516 10.0881 221.339 10.9168 220.875 12.4831H220.743V10.2704H217.378V22.9997Z" fill="#222222"/>
<path d="M19.9065 7.85059L30 17.7683V30.0001H19.9065V7.85059Z" fill="#FF9122"/>
<rect x="1.5" y="1.5" width="27" height="27" stroke="#222222" stroke-width="3"/>
<path d="M1.5 28.5001V18.6968L18.4065 10.2738V28.5001H1.5Z" stroke="#222222" stroke-width="3"/>
</svg>
