<svg width="226" height="31" viewBox="0 0 226 31" fill="none" xmlns="http://www.w3.org/2000/svg">
<path d="M47.9834 24C53.1547 24 56.279 20.8011 56.279 15.4972C56.279 10.2099 53.1547 7.02759 48.0414 7.02759H42V24H47.9834ZM45.5221 20.9751V10.0525H47.8508C51.058 10.0525 52.7569 11.7182 52.7569 15.4972C52.7569 19.3011 51.058 20.9751 47.8343 20.9751H45.5221Z" fill="#FEFEFF"/>
<path d="M64.4981 24.2486C67.6389 24.2486 69.7439 22.7237 70.2412 20.3784H66.9428C66.5947 21.1326 65.7494 21.6464 64.5561 21.6464C62.7743 21.6464 61.6307 20.4613 61.6307 18.5304H70.3323V17.5607C70.3323 13.2182 67.697 11.1049 64.3572 11.1049C60.6279 11.1049 58.1997 13.7652 58.1997 17.6933C58.1997 21.7292 60.5947 24.2486 64.4981 24.2486ZM61.6307 16.3591C61.7135 14.9005 62.824 13.6989 64.4235 13.6989C65.9732 13.6989 67.0423 14.8176 67.0588 16.3591H61.6307Z" fill="#FEFEFF"/>
<path d="M83.9609 11.2707H80.2896L77.6211 20.4199H77.4885L74.8117 11.2707H71.1405L75.599 24H79.5023L83.9609 11.2707Z" fill="#FEFEFF"/>
<path d="M91.0059 24.2486C94.1468 24.2486 96.2517 22.7237 96.749 20.3784H93.4506C93.1026 21.1326 92.2573 21.6464 91.0639 21.6464C89.2821 21.6464 88.1385 20.4613 88.1385 18.5304H96.8401V17.5607C96.8401 13.2182 94.2048 11.1049 90.865 11.1049C87.1357 11.1049 84.7075 13.7652 84.7075 17.6933C84.7075 21.7292 87.1026 24.2486 91.0059 24.2486ZM88.1385 16.3591C88.2213 14.9005 89.3318 13.6989 90.9313 13.6989C92.481 13.6989 93.5501 14.8176 93.5666 16.3591H88.1385Z" fill="#FEFEFF"/>
<path d="M102.483 7.02759H99.0109V24H102.483V7.02759Z" fill="#FEFEFF"/>
<path d="M110.91 24.2486C114.755 24.2486 117.15 21.6049 117.15 17.685C117.15 13.7403 114.755 11.1049 110.91 11.1049C107.056 11.1049 104.653 13.7403 104.653 17.685C104.653 21.6049 107.056 24.2486 110.91 24.2486ZM108.183 17.6602C108.183 15.4309 109.111 13.7569 110.926 13.7569C112.7 13.7569 113.628 15.4309 113.628 17.6602C113.628 19.8978 112.7 21.5552 110.926 21.5552C109.111 21.5552 108.183 19.8978 108.183 17.6602Z" fill="#FEFEFF"/>
<path d="M119.331 28.7734H122.804V21.9696H122.911C123.4 23.0138 124.461 24.2071 126.533 24.2071C129.442 24.2071 131.704 21.9033 131.704 17.6519C131.704 13.2928 129.351 11.1049 126.533 11.1049C124.395 11.1049 123.384 12.3812 122.911 13.4088H122.754V11.2707H119.331V28.7734ZM122.729 17.6353C122.729 15.3397 123.699 13.8812 125.447 13.8812C127.221 13.8812 128.157 15.406 128.157 17.6353C128.157 19.8812 127.204 21.4392 125.447 21.4392C123.715 21.4392 122.729 19.9226 122.729 17.6353Z" fill="#FEFEFF"/>
<path d="M147.746 11.8839H151.135C151.086 8.87565 148.632 7.06648 144.87 7.06648C141.165 7.06648 138.414 8.8425 138.431 11.9171C138.423 14.4199 140.188 15.8453 143.047 16.5414L144.903 16.9972C146.751 17.453 147.795 17.9917 147.804 19.1436C147.795 20.4199 146.602 21.2734 144.754 21.2734C142.881 21.2734 141.522 20.4199 141.406 18.7127H137.983C138.083 22.3425 140.702 24.2403 144.795 24.2403C148.931 24.2403 151.351 22.2596 151.367 19.1602C151.351 16.3259 149.188 14.8425 146.287 14.1878L144.754 13.8149C143.287 13.4751 142.019 12.9281 142.044 11.685C142.044 10.5663 142.96 10.0155 144.741 10.0155C146.465 10.0155 147.613 10.5331 147.746 11.8839Z" fill="#FEFEFF"/>
<path d="M153.581 28.7734H157.054V21.9696H157.161C157.65 23.0138 158.711 24.2071 160.783 24.2071C163.692 24.2071 165.954 21.9033 165.954 17.6519C165.954 13.2928 163.601 11.1049 160.783 11.1049C158.645 11.1049 157.634 12.3812 157.161 13.4088H157.004V11.2707H153.581V28.7734ZM156.979 17.6353C156.979 15.3397 157.949 13.8812 159.697 13.8812C161.471 13.8812 162.407 15.406 162.407 17.6353C162.407 19.8812 161.454 21.4392 159.697 21.4392C157.965 21.4392 156.979 19.9226 156.979 17.6353Z" fill="#FEFEFF"/>
<path d="M171.655 7.02759H168.183V24H171.655V7.02759Z" fill="#FEFEFF"/>
<path d="M174.347 24H177.819V11.2707H174.347V24ZM174.198 8.83974C174.198 9.81764 175.051 10.6049 176.087 10.6049C177.123 10.6049 177.977 9.81764 177.977 8.83974C177.977 7.87013 177.123 7.07455 176.087 7.07455C175.051 7.07455 174.198 7.87013 174.198 8.83974Z" fill="#FEFEFF"/>
<path d="M183.983 16.6326C183.983 14.9585 184.978 13.9889 186.428 13.9889C187.862 13.9889 188.715 14.9337 188.707 16.5V24H192.179V15.895C192.179 12.9199 190.447 11.1049 187.795 11.1049C185.898 11.1049 184.538 12.0331 183.967 13.5083H183.818V11.2707H180.511V24H183.983V16.6326Z" fill="#FEFEFF"/>
<path d="M201.576 11.2707H199.172V8.22096H195.7V11.2707H193.951V13.8812H195.7V20.569C195.683 23.0469 197.391 24.174 199.91 24.174C200.755 24.174 201.377 24.1077 201.741 24.0497V21.3149C201.327 21.3397 200.722 21.3812 200.382 21.3729C199.67 21.348 199.172 21.1077 199.172 20.0967V13.8812H201.576V11.2707Z" fill="#FEFEFF"/>
<path d="M209.373 24.2486C212.514 24.2486 214.619 22.7237 215.116 20.3784H211.818C211.47 21.1326 210.624 21.6464 209.431 21.6464C207.649 21.6464 206.506 20.4613 206.506 18.5304H215.207V17.5607C215.207 13.2182 212.572 11.1049 209.232 11.1049C205.503 11.1049 203.075 13.7652 203.075 17.6933C203.075 21.7292 205.47 24.2486 209.373 24.2486ZM206.506 16.3591C206.589 14.9005 207.699 13.6989 209.298 13.6989C210.848 13.6989 211.917 14.8176 211.934 16.3591H206.506Z" fill="#FEFEFF"/>
<path d="M217.378 24H220.85V16.7652C220.85 15.1989 222.002 14.1049 223.569 14.1049C224.058 14.1049 224.729 14.1961 225.052 14.2955V11.1961C224.745 11.1381 224.298 11.0884 223.942 11.0884C222.516 11.0884 221.339 11.9171 220.875 13.4834H220.743V11.2707H217.378V24Z" fill="#FEFEFF"/>
<path d="M19.9065 8.85046L30 18.7682V31H19.9065V8.85046Z" fill="#FF9122"/>
<rect x="1.5" y="2.5" width="27" height="27" stroke="#FEFEFF" stroke-width="3"/>
<path d="M1.5 29.5V19.6967L18.4065 11.2736V29.5H1.5Z" stroke="#FEFEFF" stroke-width="3"/>
</svg>
